<svg
              xmlns="http://www.w3.org/2000/svg"
              class="icon icon-tabler icon-tabler-atom"
              width="44"
              height="44"
              viewBox="0 0 24 24"
              stroke-width="1.5"
              stroke="#2c3e50"
              fill="none"
              stroke-linecap="round"
              stroke-linejoin="round"
            >
              <path stroke="none" d="M0 0h24v24H0z" fill="none"></path>
              <line x1="12" y1="12" x2="12" y2="12.01"></line>
              <path
                d="M12 2a4 10 0 0 0 -4 10a4 10 0 0 0 4 10a4 10 0 0 0 4 -10a4 10 0 0 0 -4 -10"
                transform="rotate(45 12 12)"></path>
              <path
                d="M12 2a4 10 0 0 0 -4 10a4 10 0 0 0 4 10a4 10 0 0 0 4 -10a4 10 0 0 0 -4 -10"
                transform="rotate(-45 12 12)"></path>
                 <defs>
    <linearGradient id="gradient" x1="16" x2="16" y1="32" y2="24" gradientUnits="userSpaceOnUse">
      <stop stop-color="#000"/>
      <stop offset="1" stop-color="#000" stop-opacity="0"/>
    </linearGradient>
  </defs>
	<style>
    @media (prefers-color-scheme:dark){:root{filter:invert(100%)}}
  </style>
            </svg>